<svg width="36" height="39" viewBox="0 0 36 39" fill="none" xmlns="http://www.w3.org/2000/svg">
<path d="M28.2282 6.54814H28.8163V9.83811H30.7553V4.60913H28.2282C24.2231 4.60913 20.4563 6.38921 17.9292 9.44077C15.3862 6.4051 11.6195 4.60913 7.61429 4.60913H5.08722V9.854H7.02623V6.54814H7.61429C11.4287 6.54814 14.973 8.43948 17.1186 11.6023L17.9133 12.7943L18.708 11.6023C20.8695 8.43948 24.4138 6.54814 28.2282 6.54814Z" fill="#A84F65"/>
<path d="M20.1543 0H15.7041L13.5744 2.06616L17.9133 6.73887L22.2681 2.06616L20.1543 0ZM17.9292 4.33894L15.863 2.12974L16.3557 1.63704H19.4709L19.9795 2.12974L17.9292 4.33894Z" fill="#A84F65"/>
<path d="M7.51893 13.5572C11.4764 13.5572 14.7028 16.7836 14.7028 20.7411H16.467C16.467 20.1212 16.4034 19.5173 16.2763 18.9292C15.4339 14.8446 11.8261 11.7771 7.50304 11.7771H1.38402V20.5821C1.38402 22.4576 2.00387 24.2218 3.17999 25.6681C3.8952 26.574 4.83292 27.3369 5.89779 27.8614C7.02623 28.4336 8.25003 28.7196 9.52151 28.7196H10.5069L8.12289 30.6746L5.16669 33.0904L6.27923 34.4413L10.7771 30.7699L13.3042 28.7038H14.671C14.6551 28.7991 14.6392 28.8786 14.6392 28.958C14.1942 33.3606 10.5228 36.6823 6.08851 36.6823H2.30585C2.28995 35.6016 2.4171 33.5195 3.45018 31.5487C3.87931 30.7381 4.27665 30.1501 4.72167 29.6256L4.76935 29.5779L3.1641 28.7355C2.71908 29.2918 2.28995 29.9276 1.89261 30.7222C0.144322 34.0917 0.605235 37.5247 0.621128 37.6836L0.732382 38.4306H6.1044C11.4446 38.4306 15.863 34.4413 16.4034 29.1488C16.4511 28.7991 16.4511 28.4336 16.4511 28.0839V26.9396H9.52151C8.94935 26.9396 8.40897 26.8601 7.86859 26.7171C7.47125 26.6058 7.07391 26.4628 6.67657 26.272C6.05672 25.9542 5.51634 25.525 5.03954 25.0323C4.8806 24.8734 4.68988 24.7145 4.54684 24.5396C4.32433 24.2536 4.11771 23.9516 3.94288 23.6496C3.41839 22.7119 3.1482 21.6629 3.1482 20.5663V13.5572H7.51893Z" fill="#A84F65"/>
<path d="M34.9989 37.7154L34.8876 38.4624H29.5156C26.9885 38.4624 24.6681 37.5724 22.8721 36.0784V33.5672C24.4456 35.4903 26.8455 36.7141 29.5156 36.7141H33.2983C33.3301 35.6333 33.2029 33.5672 32.1539 31.5646C31.7566 30.8176 30.8983 29.6415 30.8507 29.6097C31.3751 29.3554 31.8837 29.0216 32.3447 28.6561C32.8374 29.2441 33.2665 29.9276 33.7115 30.754C35.4916 34.1393 35.0148 37.5724 34.9989 37.7154Z" fill="#A84F65"/>
<path d="M28.117 11.793C23.1741 11.793 19.153 15.8141 19.153 20.757V38.4783H20.9172V28.7355H22.3158L29.3249 34.4731L30.4374 33.1063L25.0972 28.7355H26.0826C26.5594 28.7355 27.0203 28.672 27.4971 28.5925C28.2759 28.4653 29.0229 28.2269 29.7222 27.8773C30.0719 27.7025 30.3897 27.4958 30.7076 27.2733C31.3593 26.8283 31.9473 26.2879 32.4241 25.684C33.6002 24.2218 34.2201 22.4576 34.2201 20.5821V11.793H28.117ZM32.4718 20.598C32.4718 21.3291 32.3447 22.0285 32.1221 22.7119C32.0109 23.0456 31.852 23.3794 31.6771 23.6973C31.5023 24.0152 31.2957 24.3171 31.0732 24.6032C30.501 25.3025 29.7699 25.9065 28.9434 26.3197C28.7209 26.431 28.4984 26.5263 28.2759 26.6058C27.5925 26.8442 26.8455 26.9872 26.0985 26.9872H20.9172V20.7729C20.9172 16.8154 24.1436 13.5731 28.117 13.5731H32.4718V20.598Z" fill="#A84F65"/>
</svg>
